<?xml version="1.0" standalone="no"?><!DOCTYPE svg PUBLIC "-//W3C//DTD SVG 1.1//EN" "http://www.w3.org/Graphics/SVG/1.1/DTD/svg11.dtd"><svg t="1702286414700" class="icon" viewBox="0 0 1024 1024" version="1.1" xmlns="http://www.w3.org/2000/svg" p-id="1546" xmlns:xlink="http://www.w3.org/1999/xlink" width="200" height="200"><path d="M1009.28 396.16a47.36 47.36 0 0 0-32-30.08l-278.4-64L549.12 55.68a44.16 44.16 0 0 0-75.52 0L323.84 299.52l-278.4 64a47.36 47.36 0 0 0-32 30.08 44.16 44.16 0 0 0 8.96 42.24l184.96 217.6-21.76 288a44.8 44.8 0 0 0 18.56 39.68 47.36 47.36 0 0 0 26.24 8.32 48 48 0 0 0 16.64-3.2L512 876.8l264.32 109.44a55.04 55.04 0 0 0 17.28 3.2 48.64 48.64 0 0 0 26.24-8.32 46.08 46.08 0 0 0 17.92-39.68l-21.76-285.44 185.6-217.6a45.44 45.44 0 0 0 8.32-42.24zM768 640l23.68 304L512 832l-281.6 116.48L256 640 56.32 409.6 352 338.56 512 78.72l159.36 259.84L966.4 409.6z m0 0" fill="#F5B544" p-id="1547"></path><path d="M839.04 448a31.36 31.36 0 0 0-24.96-21.12l-192-27.52-83.2-174.72a30.08 30.08 0 0 0-54.4 0L399.36 396.8l-192 27.52a29.44 29.44 0 0 0-23.04 23.68 30.08 30.08 0 0 0 7.68 28.8l137.6 133.76-32.64 192a30.72 30.72 0 0 0 12.16 30.08 31.36 31.36 0 0 0 32.64 0L512 743.04 681.6 832a29.44 29.44 0 0 0 14.72 3.2 32.64 32.64 0 0 0 17.92-5.76 32 32 0 0 0 12.16-30.08l-32.64-192L832 476.8a30.08 30.08 0 0 0 7.04-28.8z m0 0" fill="#F5B544" p-id="1548"></path></svg>